<svg width="95" height="73" viewBox="0 0 95 73" fill="none" xmlns="http://www.w3.org/2000/svg">
<path d="M47.5 63.2188H37.1094C36.7157 63.2188 36.3381 63.3751 36.0598 63.6535C35.7814 63.9319 35.625 64.3094 35.625 64.7031C35.625 65.0968 35.7814 65.4744 36.0598 65.7527C36.3381 66.0311 36.7157 66.1875 37.1094 66.1875H47.5C47.8937 66.1875 48.2712 66.0311 48.5496 65.7527C48.828 65.4744 48.9844 65.0968 48.9844 64.7031C48.9844 64.3094 48.828 63.9319 48.5496 63.6535C48.2712 63.3751 47.8937 63.2188 47.5 63.2188Z" fill="#ECB84C"/>
<path d="M22.8256 32.0192C23.9048 31.0792 25.2878 30.5617 26.7189 30.5625H47.5002C48.8162 30.5642 50.0944 31.0022 51.1348 31.808C52.1752 32.6138 52.919 33.7419 53.2497 35.0156H35.6252C35.2315 35.0156 34.854 35.172 34.5756 35.4504C34.2972 35.7288 34.1408 36.1063 34.1408 36.5C34.1408 36.8937 34.2972 37.2712 34.5756 37.5496C34.854 37.828 35.2315 37.9844 35.6252 37.9844H53.2507C52.9203 39.2584 52.1764 40.3869 51.1357 41.1928C50.0951 41.9986 48.8164 42.4364 47.5002 42.4375H43.0471C42.6534 42.4375 42.2758 42.5939 41.9975 42.8723C41.7191 43.1506 41.5627 43.5282 41.5627 43.9219C41.5627 44.3155 41.7191 44.6931 41.9975 44.9715C42.2758 45.2499 42.6534 45.4062 43.0471 45.4062H50.4689C52.6082 45.4137 54.674 46.1878 56.2913 47.5881C57.9087 48.9883 58.9706 50.922 59.2843 53.0381C59.3119 53.2311 59.3772 53.4168 59.4765 53.5845C59.5759 53.7523 59.7072 53.8988 59.8632 54.0157C60.0192 54.1327 60.1966 54.2178 60.3855 54.2662C60.5743 54.3145 60.7709 54.3252 60.9638 54.2976C61.1568 54.2701 61.3425 54.2047 61.5102 54.1054C61.678 54.0061 61.8245 53.8747 61.9414 53.7187C62.0584 53.5627 62.1435 53.3853 62.1919 53.1964C62.2402 53.0076 62.2509 52.8111 62.2233 52.6181C61.8876 50.3489 60.9049 48.2245 59.3931 46.4993C57.8812 44.7741 55.9041 43.5212 53.6986 42.8906C53.7312 42.8591 53.765 42.829 53.7973 42.7978C54.8819 41.7133 55.668 40.367 56.0795 38.8894C56.491 37.4118 56.5139 35.853 56.146 34.3639C55.7781 32.8749 55.0319 31.5061 53.9797 30.3901C52.9275 29.2742 51.6048 28.4489 50.14 27.9942C50.9593 27.0496 51.5265 25.9132 51.7886 24.6905C52.0507 23.4679 51.9993 22.1989 51.6392 21.0014C51.2791 19.804 50.6219 18.7171 49.7289 17.8419C48.8358 16.9667 47.7359 16.3316 46.5315 15.9958C46.9991 15.2816 47.3069 14.475 47.4341 13.6309C47.5612 12.7868 47.5046 11.9252 47.2681 11.105C47.0316 10.2848 46.6208 9.52538 46.0638 8.87856C45.5068 8.23174 44.8167 7.71282 44.0407 7.35726C44.3891 6.67864 44.5572 5.92182 44.5289 5.15949C44.5006 4.39716 44.2767 3.65492 43.8789 3.00403C43.481 2.35314 42.9225 1.81547 42.2569 1.44264C41.5914 1.06981 40.8412 0.874338 40.0783 0.875002H34.1408C33.3781 0.87442 32.628 1.0699 31.9626 1.44269C31.2972 1.81547 30.7387 2.35304 30.3409 3.00379C29.9431 3.65454 29.7192 4.39663 29.6907 5.15883C29.6623 5.92103 29.8302 6.67774 30.1785 7.35634C29.4024 7.7119 28.7123 8.23082 28.1553 8.87763C27.5983 9.52445 27.1875 10.2839 26.951 11.1041C26.7145 11.9243 26.6579 12.7859 26.7851 13.6299C26.9122 14.474 27.2201 15.2807 27.6877 15.9948C26.483 16.3308 25.383 16.966 24.4898 17.8414C23.5967 18.7169 22.9396 19.804 22.5796 21.0017C22.2196 22.1994 22.1685 23.4687 22.431 24.6914C22.6935 25.9142 23.261 27.0507 24.0808 27.9951C22.8993 28.3608 21.8071 28.9692 20.8742 29.7813C20.5775 30.04 20.3956 30.406 20.3687 30.7988C20.3554 30.9933 20.3805 31.1885 20.4426 31.3733C20.5047 31.558 20.6026 31.7288 20.7307 31.8757C20.8588 32.0226 21.0146 32.1429 21.1892 32.2297C21.3637 32.3164 21.5537 32.3679 21.7482 32.3812C22.1409 32.4081 22.5283 32.2779 22.8251 32.0192H22.8256ZM34.1408 3.84375H40.0783C40.472 3.84375 40.8496 4.00014 41.1279 4.27851C41.4063 4.55689 41.5627 4.93445 41.5627 5.32813C41.5627 5.72181 41.4063 6.09936 41.1279 6.37774C40.8496 6.65611 40.472 6.8125 40.0783 6.8125H34.1408C33.7471 6.8125 33.3696 6.65611 33.0912 6.37774C32.8128 6.09936 32.6564 5.72181 32.6564 5.32813C32.6564 4.93445 32.8128 4.55689 33.0912 4.27851C33.3696 4.00014 33.7471 3.84375 34.1408 3.84375ZM32.6564 9.78125H41.5627C42.3501 9.78125 43.1052 10.094 43.6619 10.6508C44.2187 11.2075 44.5314 11.9626 44.5314 12.75C44.5314 13.5374 44.2187 14.2925 43.6619 14.8492C43.1052 15.406 42.3501 15.7187 41.5627 15.7187H32.6564C31.8691 15.7187 31.114 15.406 30.5572 14.8492C30.0005 14.2925 29.6877 13.5374 29.6877 12.75C29.6877 11.9626 30.0005 11.2075 30.5572 10.6508C31.114 10.094 31.8691 9.78125 32.6564 9.78125V9.78125ZM29.6877 18.6875H44.5314C45.452 18.6887 46.3496 18.9746 47.1011 19.5062C47.8527 20.0377 48.4214 20.7887 48.7293 21.6562H34.1408C33.7471 21.6562 33.3696 21.8126 33.0912 22.091C32.8128 22.3694 32.6564 22.7469 32.6564 23.1406C32.6564 23.5343 32.8128 23.9119 33.0912 24.1902C33.3696 24.4686 33.7471 24.625 34.1408 24.625H48.7293C48.4214 25.4925 47.8527 26.2436 47.1011 26.7751C46.3496 27.3066 45.452 27.5926 44.5314 27.5937H29.6877C28.5067 27.5937 27.374 27.1246 26.5389 26.2895C25.7037 25.4543 25.2346 24.3217 25.2346 23.1406C25.2346 21.9596 25.7037 20.8269 26.5389 19.9918C27.374 19.1567 28.5067 18.6875 29.6877 18.6875Z" fill="#ECB84C"/>
<path d="M38.555 46.8808C38.6394 46.5189 38.585 46.1386 38.4026 45.8148C38.2201 45.4911 37.9229 45.2476 37.5696 45.1324C37.3189 45.0506 31.8547 43.3016 26.8952 44.1616C25.0598 39.4191 20.4883 35.5606 20.2471 35.3597C19.9803 35.1374 19.6441 35.0157 19.2969 35.0157C18.9497 35.0157 18.6135 35.1374 18.3467 35.3597C18.1276 35.5421 13.4041 39.522 11.6221 44.3481C6.68399 43.5198 1.30684 45.2387 1.02407 45.3315C0.670809 45.4467 0.373613 45.6903 0.191194 46.014C0.00877564 46.3377 -0.0455989 46.7181 0.0388129 47.0799C0.119711 47.4269 1.99726 55.2592 6.92761 58.6293C4.37597 63.5854 5.4193 70.5414 5.47051 70.87C5.5251 71.2196 5.70279 71.5383 5.97155 71.7684C6.24031 71.9986 6.58247 72.1252 6.93633 72.1254C6.96825 72.1254 7.00053 72.1254 7.03263 72.1223C7.37923 72.1 14.974 71.5656 19.2158 67.6294C23.4571 71.5651 31.0522 72.1 31.3988 72.1223C31.4311 72.1245 31.4632 72.1254 31.4951 72.1254C31.849 72.1252 32.1912 71.9986 32.46 71.7684C32.7287 71.5381 32.9064 71.2195 32.961 70.8698C33.011 70.5475 34.065 63.5222 31.4684 58.5629C36.5465 55.27 38.473 47.2326 38.555 46.8808ZM8.24945 68.9958C8.0472 66.2185 8.20009 61.4366 10.3446 58.7794C11.9463 56.7952 14.2929 54.8692 16.8894 55.9314C16.157 56.9062 15.6993 58.0595 15.5641 59.2713C15.3511 61.2117 15.9446 63.2455 17.3245 65.3324C14.8692 67.7417 10.4918 68.6679 8.24945 68.9958ZM14.2187 52.7701C12.2591 53.1083 10.3868 54.2639 8.64207 56.2038C5.72898 54.2541 4.03475 49.9741 3.3254 47.7718C6.05294 47.1224 10.8337 46.4928 13.8261 48.1678C15.7249 49.2308 17.7474 50.8821 17.8092 53.1085C16.6642 52.6767 15.4242 52.5598 14.2187 52.7701V52.7701ZM15.2763 45.5774C15.0165 45.432 14.7506 45.2995 14.4784 45.1797C15.5721 42.3744 17.9691 39.7955 19.3027 38.5054C21.3761 40.5036 24.6815 44.4203 24.6815 47.8802C24.6815 51.4983 23.3248 53.6598 20.7382 54.2166C20.7271 54.2055 20.7165 54.1938 20.705 54.1832C21.0312 51.8952 20.4135 48.4531 15.2759 45.5774H15.2763ZM30.1726 69.0032C27.3988 68.5974 22.7221 67.4109 20.5729 64.7479C19.0622 62.8763 18.3508 61.0945 18.5154 59.5949C18.6002 58.8514 18.8977 58.1482 19.3721 57.5694C20.3848 59.0346 21.9182 60.0582 23.6597 60.4317C24.1764 60.5403 24.7031 60.5944 25.2311 60.5933C26.4575 60.5744 27.6704 60.3333 28.8108 59.8817C30.3681 62.7751 30.3267 66.8729 30.1722 69.0032H30.1726ZM29.4985 56.2864C27.3623 57.4822 24.6121 58.3755 22.6165 56.7404C23.5992 56.3608 24.488 55.7728 25.2216 55.0169C26.8338 53.3508 27.6523 50.9499 27.6523 47.8802C27.6523 47.6019 27.6337 47.3263 27.6074 47.0506C30.4152 46.6114 33.5233 47.1675 35.2669 47.582C34.5181 49.8999 32.6871 54.5014 29.4981 56.2864H29.4985Z" fill="#ECB84C"/>
<path d="M72.7344 24.625C73.1281 24.625 73.5056 24.4686 73.784 24.1902C74.0624 23.9119 74.2188 23.5343 74.2188 23.1406V12.75C74.2188 12.3563 74.0624 11.9788 73.784 11.7004C73.5056 11.422 73.1281 11.2656 72.7344 11.2656C72.3407 11.2656 71.9631 11.422 71.6848 11.7004C71.4064 11.9788 71.25 12.3563 71.25 12.75V23.1406C71.25 23.5343 71.4064 23.9119 71.6848 24.1902C71.9631 24.4686 72.3407 24.625 72.7344 24.625Z" fill="#ECB84C"/>
<path d="M72.7344 35.0156C73.1281 35.0156 73.5056 34.8592 73.784 34.5809C74.0624 34.3025 74.2188 33.9249 74.2188 33.5312V29.0781C74.2188 28.6844 74.0624 28.3069 73.784 28.0285C73.5056 27.7501 73.1281 27.5938 72.7344 27.5938C72.3407 27.5938 71.9631 27.7501 71.6848 28.0285C71.4064 28.3069 71.25 28.6844 71.25 29.0781V33.5312C71.25 33.9249 71.4064 34.3025 71.6848 34.5809C71.9631 34.8592 72.3407 35.0156 72.7344 35.0156Z" fill="#ECB84C"/>
<path d="M66.7969 37.9844C67.1906 37.9844 67.5681 37.828 67.8465 37.5496C68.1249 37.2712 68.2812 36.8937 68.2812 36.5V24.625C68.2812 24.2313 68.1249 23.8538 67.8465 23.5754C67.5681 23.297 67.1906 23.1406 66.7969 23.1406C66.4032 23.1406 66.0256 23.297 65.7473 23.5754C65.4689 23.8538 65.3125 24.2313 65.3125 24.625V36.5C65.3125 36.8937 65.4689 37.2712 65.7473 37.5496C66.0256 37.828 66.4032 37.9844 66.7969 37.9844Z" fill="#ECB84C"/>
<path d="M78.6719 37.9844C79.0656 37.9844 79.4431 37.828 79.7215 37.5496C79.9999 37.2712 80.1562 36.8937 80.1562 36.5V24.625C80.1562 24.2313 79.9999 23.8538 79.7215 23.5754C79.4431 23.297 79.0656 23.1406 78.6719 23.1406C78.2782 23.1406 77.9006 23.297 77.6223 23.5754C77.3439 23.8538 77.1875 24.2313 77.1875 24.625V36.5C77.1875 36.8937 77.3439 37.2712 77.6223 37.5496C77.9006 37.828 78.2782 37.9844 78.6719 37.9844Z" fill="#ECB84C"/>
<path d="M66.7969 20.1719C67.6167 20.1719 68.2812 19.5073 68.2812 18.6875C68.2812 17.8677 67.6167 17.2031 66.7969 17.2031C65.9771 17.2031 65.3125 17.8677 65.3125 18.6875C65.3125 19.5073 65.9771 20.1719 66.7969 20.1719Z" fill="#ECB84C"/>
<path d="M29.6875 37.9844C30.5073 37.9844 31.1719 37.3198 31.1719 36.5C31.1719 35.6802 30.5073 35.0156 29.6875 35.0156C28.8677 35.0156 28.2031 35.6802 28.2031 36.5C28.2031 37.3198 28.8677 37.9844 29.6875 37.9844Z" fill="#ECB84C"/>
<path d="M78.6719 20.1719C79.4917 20.1719 80.1562 19.5073 80.1562 18.6875C80.1562 17.8677 79.4917 17.2031 78.6719 17.2031C77.8521 17.2031 77.1875 17.8677 77.1875 18.6875C77.1875 19.5073 77.8521 20.1719 78.6719 20.1719Z" fill="#ECB84C"/>
<path d="M78.6719 14.2344C79.4917 14.2344 80.1562 13.5698 80.1562 12.75C80.1562 11.9302 79.4917 11.2656 78.6719 11.2656C77.8521 11.2656 77.1875 11.9302 77.1875 12.75C77.1875 13.5698 77.8521 14.2344 78.6719 14.2344Z" fill="#ECB84C"/>
<path d="M66.7969 14.2344C67.6167 14.2344 68.2812 13.5698 68.2812 12.75C68.2812 11.9302 67.6167 11.2656 66.7969 11.2656C65.9771 11.2656 65.3125 11.9302 65.3125 12.75C65.3125 13.5698 65.9771 14.2344 66.7969 14.2344Z" fill="#ECB84C"/>
<path d="M72.7344 8.29688C73.5542 8.29688 74.2188 7.6323 74.2188 6.8125C74.2188 5.9927 73.5542 5.32812 72.7344 5.32812C71.9146 5.32812 71.25 5.9927 71.25 6.8125C71.25 7.6323 71.9146 8.29688 72.7344 8.29688Z" fill="#ECB84C"/>
<path d="M93.5156 57.2812H74.2188V54.1312C76.7767 53.494 78.6719 51.2498 78.6719 48.587C78.6719 46.0016 75.0767 40.3302 73.9749 38.6534C73.8398 38.4478 73.6557 38.279 73.4392 38.1621C73.2226 38.0453 72.9804 37.9841 72.7344 37.9841C72.4883 37.9841 72.2461 38.0453 72.0296 38.1621C71.813 38.279 71.6289 38.4478 71.4938 38.6534C70.392 40.3302 66.7969 46.0011 66.7969 48.587C66.7969 51.2498 68.6921 53.494 71.25 54.1312V57.2812H51.9531C51.5594 57.2812 51.1819 57.4376 50.9035 57.716C50.6251 57.9944 50.4688 58.3719 50.4688 58.7656C50.4672 60.9024 50.9816 63.008 51.9682 64.9035C52.0201 65.2858 52.2191 65.6328 52.5229 65.8707C53.7247 67.7842 55.3921 69.3616 57.3692 70.4554C59.3463 71.5492 61.5686 72.1236 63.8281 72.125H81.6406C83.9002 72.1236 86.1224 71.5492 88.0996 70.4554C90.0767 69.3616 91.7441 67.7842 92.9458 65.8707C93.2496 65.6328 93.4487 65.2858 93.5006 64.9035C94.4872 63.008 95.0015 60.9024 95 58.7656C95 58.3719 94.8436 57.9944 94.5652 57.716C94.2869 57.4376 93.9093 57.2812 93.5156 57.2812ZM69.7656 48.587C69.7656 47.6552 71.1493 44.8999 72.7344 42.2599C74.3195 44.8986 75.7031 47.6537 75.7031 48.587C75.7031 50.107 74.3713 51.3437 72.7344 51.3437C71.0975 51.3437 69.7656 50.107 69.7656 48.587ZM91.0254 63.2187H66.7969C66.4032 63.2187 66.0256 63.3751 65.7473 63.6535C65.4689 63.9318 65.3125 64.3094 65.3125 64.7031C65.3125 65.0968 65.4689 65.4743 65.7473 65.7527C66.0256 66.0311 66.4032 66.1875 66.7969 66.1875H88.9026C86.9651 68.0914 84.357 69.1576 81.6406 69.1562H63.8281C61.1118 69.1576 58.5037 68.0914 56.5662 66.1875H60.8594C61.2531 66.1875 61.6306 66.0311 61.909 65.7527C62.1874 65.4743 62.3438 65.0968 62.3438 64.7031C62.3438 64.3094 62.1874 63.9318 61.909 63.6535C61.6306 63.3751 61.2531 63.2187 60.8594 63.2187H54.4434C53.9952 62.2802 53.6917 61.2793 53.5431 60.25H91.9257C91.7771 61.2793 91.4736 62.2802 91.0254 63.2187V63.2187Z" fill="#ECB84C"/>
</svg>
