<svg width="95" height="95" viewBox="0 0 95 95" fill="none" xmlns="http://www.w3.org/2000/svg">
<path d="M80.8949 11.4885C71.951 4.07999 60.091 0 47.5 0C34.909 0 23.049 4.07999 14.1051 11.4885C5.00921 19.0228 0 29.0856 0 39.8232C0 51.3392 6.36815 62.7019 17.0939 70.4338C19.6965 84.2171 32.0503 94.7354 46.9406 94.9931C47.0024 94.9972 47.0645 95 47.1271 95H81.5785C82.3535 95 83.0935 94.6768 83.6202 94.1083L85.7227 91.839C88.6356 88.6953 90.2259 84.5556 90.2005 80.1826L90.0658 57.0447L90.7495 55.8262C93.4206 51.0647 94.8883 45.7659 94.9931 40.5028C94.9976 40.2768 94.9998 40.0503 94.9998 39.8232C95 29.0856 89.9908 19.0228 80.8949 11.4885V11.4885ZM89.4336 39.8232C89.4336 40.0128 89.4317 40.2021 89.428 40.3913C89.387 42.4505 89.0887 44.5194 88.553 46.5483C87.0024 44.1839 84.3839 42.629 81.4254 42.629C81.4096 42.629 81.3931 42.629 81.3771 42.6292C80.2141 42.6359 79.0892 42.8786 78.0523 43.3354C76.4397 33.6011 69.5244 25.6192 60.3595 22.4224C59.7754 21.4735 58.9978 20.2543 58.5206 19.5772C53.6425 12.6552 46.9526 7.99577 39.5408 6.18799C42.1188 5.78183 44.779 5.56641 47.5 5.56641C70.6223 5.56641 89.4336 20.934 89.4336 39.8232V39.8232ZM5.56641 39.8232C5.56641 32.9964 8.02472 26.6302 12.2543 21.2826C17.5166 14.668 24.8204 10.9105 32.5492 10.9105C40.1442 10.9105 47.3282 14.5395 52.5686 20.9421C52.1967 20.9269 51.8234 20.9173 51.4479 20.9173H43.5521C28.6839 20.9173 16.5879 32.9307 16.5879 47.6972V62.8546C9.60539 56.4443 5.56641 48.1487 5.56641 39.8232V39.8232ZM22.1541 65.0203V47.6974C22.1541 36.0002 31.753 26.4838 43.5519 26.4838H51.4477C63.2466 26.4838 72.8455 36.0002 72.8455 47.6976L72.9099 66.307C72.3442 66.1914 71.7612 66.1339 71.1721 66.1374C68.8435 66.1508 66.6674 67.1088 65.0329 68.8474L45.957 89.387C32.6971 88.6161 22.1541 77.9828 22.1541 65.0203V65.0203ZM81.6395 88.0557L80.3631 89.4336H53.5106L69.1003 72.6479C69.6684 72.0436 70.4156 71.7083 71.2045 71.7039C71.99 71.6935 72.7448 72.0261 73.3201 72.624C74.5757 73.9289 74.5887 76.146 73.3483 77.4653C73.3404 77.4736 73.3326 77.4821 73.3248 77.4907L70.3445 80.7413C69.3057 81.8742 69.3819 83.6349 70.515 84.6736C71.0492 85.1634 71.7231 85.4054 72.3952 85.4054C73.1481 85.4054 73.8985 85.1018 74.4473 84.5031L77.417 81.2643C80.2204 78.2694 80.5747 73.6866 78.5001 70.2844L78.4127 51.1486C78.491 50.3847 78.8029 49.6805 79.3155 49.1354C79.8809 48.5341 80.6248 48.2003 81.4096 48.1956H81.4258C83.0936 48.1956 84.4569 49.6817 84.4676 51.5162L84.6346 80.2151C84.6515 83.1686 83.5879 85.9531 81.6395 88.0557V88.0557Z" fill="#ECB84C"/>
<path d="M47.4999 75.3786C52.3818 75.3786 56.8518 72.7761 59.1656 68.5867C59.9087 67.2411 59.4204 65.548 58.0748 64.8049C56.7283 64.0616 55.0359 64.5501 54.2928 65.8957C52.9585 68.3115 50.3556 69.8122 47.4999 69.8122C44.6441 69.8122 42.0411 68.3115 40.707 65.8957C39.9639 64.5501 38.271 64.0617 36.925 64.8049C35.5794 65.548 35.0911 67.2411 35.8342 68.5867C38.148 72.7761 42.618 75.3786 47.4999 75.3786Z" fill="#ECB84C"/>
</svg>
