<svg width="37" height="37" viewBox="0 0 37 37" fill="none" xmlns="http://www.w3.org/2000/svg">
<g clip-path="url(#clip0)">
<path fill-rule="evenodd" clip-rule="evenodd" d="M24.1861 8.25635H11.8324C9.86075 8.25635 8.25635 9.86065 8.25635 11.8324V24.1861C8.25635 26.1581 9.86075 27.7625 11.8324 27.7625H24.1861C26.1581 27.7625 27.7624 26.1581 27.7624 24.1861V11.8324C27.7624 9.86075 26.1581 8.25635 24.1861 8.25635ZM18.009 24.4306C14.4686 24.4306 11.5878 21.5498 11.5878 18.009C11.5878 14.4686 14.4686 11.5878 18.009 11.5878C21.5498 11.5878 24.4306 14.4686 24.4306 18.009C24.4306 21.5498 21.5498 24.4306 18.009 24.4306ZM24.6372 12.9157C23.7989 12.9157 23.1174 12.2341 23.1174 11.3964C23.1174 10.5586 23.7989 9.87697 24.6372 9.87697C25.4749 9.87697 26.1565 10.5586 26.1565 11.3964C26.1565 12.2342 25.4749 12.9157 24.6372 12.9157Z" fill="#ECB84C"/>
<path fill-rule="evenodd" clip-rule="evenodd" d="M18.009 14.3015C15.9651 14.3015 14.3008 15.9651 14.3008 18.0089C14.3008 20.0536 15.9651 21.7175 18.009 21.7175C20.0536 21.7175 21.7168 20.0536 21.7168 18.0089C21.7168 15.9651 20.0536 14.3015 18.009 14.3015Z" fill="#ECB84C"/>
<path fill-rule="evenodd" clip-rule="evenodd" d="M5 0C2.23858 0 0 2.23858 0 5V31.0183C0 33.7798 2.23858 36.0183 5 36.0183H31.0183C33.7798 36.0183 36.0183 33.7798 36.0183 31.0183V5C36.0183 2.23858 33.7798 0 31.0183 0H5ZM30.4755 24.186C30.4755 27.6546 27.6546 30.4755 24.1861 30.4755H11.8323C8.36417 30.4755 5.54286 27.6546 5.54286 24.186V11.8323C5.54286 8.36417 8.36417 5.54286 11.8323 5.54286H24.1861C27.6546 5.54286 30.4755 8.36417 30.4755 11.8323V24.186Z" fill="#ECB84C"/>
</g>
<defs>
<clipPath id="clip0">
<rect width="36.0183" height="36.0183" fill="white"/>
</clipPath>
</defs>
</svg>
