<svg width="91" height="95" viewBox="0 0 91 95" fill="none" xmlns="http://www.w3.org/2000/svg">
<path d="M32.7243 1.39215C32.7243 0.62331 32.1012 0 31.3322 0C30.5632 0 29.9401 0.62331 29.9401 1.39215V3.36212C29.9401 6.91172 28.4662 10.352 25.8961 12.8005C24.7704 13.8732 23.4747 14.7282 22.0458 15.3416L14.38 18.6325C8.55744 21.132 4.12856 25.7772 1.90911 31.7121C-0.272287 37.5463 -0.0248563 43.8409 2.60017 49.4737V70.5771C2.60017 71.346 3.2233 71.9693 3.99232 71.9693C4.76134 71.9693 5.38446 71.346 5.38446 70.5771V49.1604C5.38446 48.9508 5.33713 48.744 5.24618 48.5552C2.82533 43.5394 2.56639 37.904 4.51706 32.6874C6.46792 27.4707 10.3605 23.3879 15.4784 21.1909L23.1443 17.9C24.8784 17.1557 26.4506 16.1181 27.8169 14.8163C30.9357 11.8447 32.7243 7.66979 32.7243 3.36212V1.39215Z" fill="#ECB84C"/>
<path d="M23.0546 65.9899C21.8429 63.6819 21.2023 61.0842 21.2023 58.4777V39.0031C21.2023 38.2343 20.5792 37.611 19.8102 37.611C19.0412 37.611 18.418 38.2343 18.418 39.0031V61.7888C18.418 63.1258 18.0717 64.4484 17.4164 65.6135L16.7248 66.8434C16.348 67.5135 16.5858 68.3623 17.2559 68.7391C17.4716 68.8603 17.7058 68.9181 17.9369 68.9181C18.4236 68.9181 18.8962 68.6625 19.1516 68.2081L19.8432 66.9784C19.9522 66.7848 20.0545 66.5878 20.1508 66.3881C20.2894 66.6903 20.4346 66.9897 20.5894 67.2843L21.4345 68.8938C21.4655 68.953 21.4796 69.0194 21.4756 69.0855L20.7372 80.7459C20.6885 81.5133 21.2714 82.1746 22.0387 82.2233C22.0686 82.2251 22.0983 82.2262 22.1278 82.2262C22.8566 82.2262 23.4693 81.6594 23.5161 80.9221L24.2545 69.2615C24.2907 68.6857 24.1682 68.1112 23.8999 67.5998L23.0546 65.9899Z" fill="#ECB84C"/>
<path d="M21.8386 85.3775C21.0731 85.3298 20.4101 85.9115 20.3613 86.6789L19.9633 92.9628C19.9147 93.7302 20.4975 94.3915 21.2648 94.4402C21.2947 94.442 21.3244 94.4431 21.3539 94.4431C22.0827 94.4431 22.6954 93.8763 22.7422 93.139L23.1402 86.855C23.1888 86.0875 22.6059 85.4261 21.8386 85.3775V85.3775Z" fill="#ECB84C"/>
<path d="M89.0906 31.7123C86.8714 25.7772 82.4425 21.132 76.6198 18.6327L68.9537 15.3418C67.525 14.7283 66.2294 13.8734 65.1036 12.8009C62.5335 10.3522 61.0597 6.91191 61.0597 3.36231V1.39215C61.0597 0.62331 60.4366 0 59.6675 0C58.8985 0 58.2754 0.62331 58.2754 1.39215V3.36212C58.2754 7.66979 60.0642 11.8447 63.1828 14.8163C64.5491 16.1181 66.1213 17.1557 67.8554 17.9L75.5213 21.1909C80.639 23.3879 84.5318 27.4707 86.4825 32.6874C88.4333 37.904 88.1744 43.5394 85.7536 48.5554C85.6626 48.7442 85.6153 48.951 85.6153 49.1606V70.5773C85.6153 71.3462 86.2384 71.9695 87.0074 71.9695C87.7764 71.9695 88.3996 71.3462 88.3996 70.5773V49.4739C91.0246 43.8411 91.272 37.5463 89.0906 31.7123V31.7123Z" fill="#ECB84C"/>
<path d="M73.5833 65.6133C72.928 64.4484 72.5816 63.1258 72.5816 61.7888V39.0031C72.5816 38.2343 71.9585 37.611 71.1895 37.611C70.4205 37.611 69.7973 38.2343 69.7973 39.0031V58.4777C69.7973 61.0842 69.157 63.6819 67.9451 65.9899L67.0999 67.5998C66.8315 68.1114 66.709 68.6862 66.7456 69.2615L68.2573 93.1388C68.304 93.8763 68.9166 94.4432 69.6455 94.4432C69.675 94.4432 69.7047 94.4422 69.7346 94.4402C70.502 94.3916 71.0846 93.7302 71.0362 92.9628L69.5243 69.0848C69.5202 69.0189 69.5343 68.9528 69.5653 68.8938L70.4105 67.2841C70.5651 66.9895 70.7104 66.6901 70.8491 66.3879C70.9452 66.5876 71.0477 66.7844 71.1566 66.978L71.8483 68.2079C72.1037 68.6623 72.5763 68.9179 73.063 68.9179C73.2941 68.9179 73.5283 68.8602 73.744 68.739C74.4141 68.3622 74.652 67.5133 74.2751 66.8432L73.5833 65.6133Z" fill="#ECB84C"/>
<path d="M57.2946 22.7814C56.695 23.2627 56.599 24.1389 57.0802 24.7386C57.8733 25.7268 58.2754 26.7691 58.2754 27.8364C58.2754 31.8992 52.3825 35.3315 45.4071 35.3315C38.4317 35.3315 32.5389 31.8992 32.5389 27.8364C32.5389 23.7736 38.4317 20.3413 45.4071 20.3413C48.0199 20.3413 50.544 20.81 52.7059 21.6965C53.4172 21.9885 54.2304 21.648 54.5221 20.9368C54.8138 20.2253 54.4735 19.4123 53.7622 19.1205C51.6861 18.269 49.3356 17.753 46.8919 17.6036V1.39215C46.8919 0.62331 46.2688 0 45.4997 0C44.7307 0 44.1076 0.62331 44.1076 1.39215V17.5937C40.5279 17.7833 37.186 18.7511 34.587 20.3708C31.4706 22.3129 29.7544 24.9643 29.7544 27.8366C29.7544 30.7089 31.4706 33.3603 34.587 35.3024C37.1636 36.9082 40.4702 37.874 44.0148 38.0752V41.3062C37.6666 41.7534 32.8752 45.2308 32.8752 49.5906C32.8752 53.9505 37.6664 57.4278 44.0148 57.875V63.3014C39.1319 63.7463 35.4821 66.5046 35.4821 69.9468C35.4821 73.3889 39.1319 76.1474 44.0148 76.5923V81.6309C40.7084 82.0703 38.2821 84.0529 38.2821 86.504C38.2821 88.9551 40.7084 90.9377 44.0148 91.3771V93.6078C44.0148 94.3767 44.6379 95 45.4069 95C46.176 95 46.7991 94.3767 46.7991 93.6078V91.3769C50.1055 90.9375 52.5317 88.9547 52.5317 86.5038C52.5317 84.0529 50.1055 82.0703 46.7991 81.6308V76.589C47.0634 76.5643 47.3268 76.535 47.588 76.4963C48.3486 76.3839 48.8739 75.6761 48.7613 74.9154C48.649 74.1547 47.9412 73.6306 47.1803 73.7419C46.5966 73.8282 46 73.8721 45.4067 73.8721C42.0294 73.8721 38.2662 72.2598 38.2662 69.9466C38.2662 67.6334 42.0292 66.0211 45.4067 66.0211C48.7843 66.0211 52.5473 67.6332 52.5473 69.9466C52.5473 70.537 52.2821 71.1186 51.7592 71.6754C51.2328 72.2358 51.2603 73.1168 51.8208 73.6432C52.3808 74.1696 53.262 74.1421 53.7888 73.5816C54.7982 72.507 55.3316 71.25 55.3316 69.9466C55.3316 66.5043 51.6818 63.7461 46.7989 63.3012V57.8748C53.1471 57.4277 57.9385 53.9503 57.9385 49.5904C57.9385 45.2306 53.1474 41.7532 46.7993 41.3061V38.075C50.3439 37.8738 53.6505 36.908 56.2271 35.3022C59.3434 33.3601 61.0597 30.7087 61.0597 27.8364C61.0597 26.1436 60.4345 24.4698 59.2517 22.9958C58.7706 22.3965 57.8943 22.3003 57.2946 22.7814V22.7814ZM49.7476 86.5038C49.7476 87.5331 47.8914 88.6845 45.4071 88.6845C42.9228 88.6845 41.0666 87.5333 41.0666 86.5038C41.0666 85.4744 42.9228 84.3234 45.4071 84.3234C47.8914 84.3234 49.7476 85.4744 49.7476 86.5038ZM55.1545 49.5904C55.1545 52.599 50.6908 55.1405 45.4071 55.1405C40.1235 55.1405 35.6597 52.5988 35.6597 49.5904C35.6597 46.5821 40.1235 44.0404 45.4071 44.0404C50.6908 44.0404 55.1545 46.5821 55.1545 49.5904Z" fill="#ECB84C"/>
</svg>
