<svg width="93" height="93" viewBox="0 0 93 93" fill="none" xmlns="http://www.w3.org/2000/svg">
<path d="M34.4083 21.2656H34.8402C37.1781 21.2656 39.0781 19.3656 39.0781 17.0292C39.0781 15.4142 38.1816 13.964 36.7358 13.2396L33.8427 11.7923C33.4093 11.5771 33.1406 11.1422 33.1406 10.6583C33.1406 9.96063 33.7106 9.39062 34.4083 9.39062H34.8402C35.5394 9.39062 36.1094 9.96063 36.1094 10.6583V10.875H39.0781V10.6583C39.0781 8.32188 37.1781 6.42188 34.8417 6.42188H34.4098C32.0719 6.42188 30.1719 8.32188 30.1719 10.6583C30.1719 12.2733 31.0684 13.7235 32.5142 14.4479L35.4073 15.8952C35.8407 16.1104 36.1094 16.5453 36.1094 17.0292C36.1094 17.7269 35.5394 18.2969 34.8417 18.2969H34.4098C33.7106 18.2969 33.1406 17.7269 33.1406 17.0292V16.8125H30.1719V17.0292C30.1719 19.3656 32.0719 21.2656 34.4083 21.2656Z" fill="#ECB84C"/>
<path d="M45.0156 15.3281H46.5C48.9552 15.3281 50.9531 13.3302 50.9531 10.875C50.9531 8.41984 48.9552 6.42188 46.5 6.42188H42.0469V21.2656H45.0156V15.3281ZM45.0156 9.39062H46.5C47.3194 9.39062 47.9844 10.0556 47.9844 10.875C47.9844 11.6944 47.3194 12.3594 46.5 12.3594H45.0156V9.39062Z" fill="#ECB84C"/>
<path d="M54.6178 18.2969H59.163L59.8933 21.5877L62.7923 20.9435L59.5653 6.42188H54.2156L50.9871 20.9435L53.886 21.5877L54.6178 18.2969ZM57.1843 9.39062L58.5024 15.3281H55.2769L56.595 9.39062H57.1843Z" fill="#ECB84C"/>
<path d="M89.5467 83.8825V40.9128L92.6906 34.625L83.0422 15.3281H68.7655V4.9375C68.7655 2.48234 66.7675 0.484375 64.3124 0.484375H28.6874C26.2322 0.484375 24.2342 2.48234 24.2342 4.9375V15.3281H9.95752L0.309082 34.625L3.45299 40.9128V83.8825C1.72963 84.497 0.484238 86.1298 0.484238 88.0625V92.5156H92.5155V88.0625C92.5155 86.1298 91.2701 84.497 89.5467 83.8825ZM39.7608 50.9531C38.4011 53.5582 35.3329 58.0588 29.7012 59.9366L28.6874 60.2735V61.3438C28.6874 61.4402 28.6191 69.732 24.2342 75.4913V50.9531H39.7608ZM68.7655 75.4869C64.3985 69.7364 64.3124 61.4388 64.3124 61.3423L64.3094 60.272L63.2971 59.9351C57.6965 58.0677 54.6164 53.5612 53.2463 50.9516H68.7655V75.4869ZM49.9451 50.9531C51.0049 53.4038 54.2958 59.5996 61.3822 62.3962C61.5633 65.4718 62.638 74.4448 68.767 79.8257V82.4159L64.9106 80.0053C54.7337 73.6448 48.5112 62.8638 48.0317 50.9531H49.9451ZM24.2342 79.8257C30.3632 74.4448 31.4364 65.4718 31.619 62.3962C38.7054 59.5996 41.9963 53.4038 43.0561 50.9531H44.9695C44.4885 62.8638 38.2675 73.6448 28.0906 80.0053L24.2342 82.4159V79.8257ZM29.6641 82.5228C38.0226 77.2978 43.9111 69.3134 46.4999 60.134C49.0886 69.3134 54.9771 77.2978 63.3356 82.5228L65.0753 83.6094H27.9244L29.6641 82.5228ZM71.7342 50.9531H74.703V47.9844H18.2967V50.9531H21.2655V83.6094H12.3592V42.0469H17.7297L19.7811 37.9455L21.8325 42.0469H35.5422L37.5936 37.9441L39.645 42.0469H53.3547L55.4061 37.9441L57.4575 42.0469H71.1672L73.2186 37.9455L75.27 42.0469H80.6405V83.6094H71.7342V50.9531ZM24.6721 24.6441C25.3876 26.1507 26.9121 27.2031 28.6874 27.2031H37.3264L36.3363 33.1406H21.8414L24.6721 24.6441ZM68.3276 24.6441L71.1583 33.1406H56.6634L55.6733 27.2031H64.3124C66.0877 27.2031 67.6121 26.1507 68.3276 24.6441V24.6441ZM77.1047 39.0781L75.6203 36.1094H88.6294L87.145 39.0781H77.1047ZM70.8169 36.1094L69.3325 39.0781H59.2922L57.8078 36.1094H70.8169ZM52.6645 27.2031L53.6531 33.1406H39.3452L40.3338 27.2031H52.6645ZM53.0044 36.1094L51.52 39.0781H41.4797L39.9953 36.1094H53.0044ZM35.1919 36.1094L33.7075 39.0781H23.6672L22.1828 36.1094H35.1919ZM5.85471 39.0781L4.37033 36.1094H17.3794L15.895 39.0781H5.85471ZM9.39049 42.0469V83.6094H6.42174V42.0469H9.39049ZM83.6092 42.0469H86.578V83.6094H83.6092V42.0469ZM88.6294 33.1406H74.2888L69.3399 18.2969H81.2075L88.6294 33.1406ZM27.203 4.9375C27.203 4.11813 27.868 3.45312 28.6874 3.45312H64.3124C65.1317 3.45312 65.7967 4.11813 65.7967 4.9375V22.75C65.7967 23.5694 65.1317 24.2344 64.3124 24.2344H28.6874C27.868 24.2344 27.203 23.5694 27.203 22.75V4.9375ZM11.7922 18.2969H23.6598L18.7109 33.1406H4.37033L11.7922 18.2969ZM89.5467 89.5469H3.45299V88.0625C3.45299 87.2431 4.11799 86.5781 4.93736 86.5781H88.0624C88.8817 86.5781 89.5467 87.2431 89.5467 88.0625V89.5469Z" fill="#ECB84C"/>
</svg>
