<svg width="37" height="37" viewBox="0 0 37 37" fill="none" xmlns="http://www.w3.org/2000/svg">
<g clip-path="url(#clip0)">
<path d="M18.0093 0.637451V3.54802H33.1079V33.7452H18.0093V36.6558H36.0184V0.637451H18.0093Z" fill="#ECB84C"/>
<path d="M2.91057 33.7452V3.54802H18.0092V0.637451H0V36.6558H18.0092V33.7452H2.91057Z" fill="#ECB84C"/>
<path d="M6.95369 18.2373L12.2351 20.2085L14.2794 26.7828C14.4102 27.2036 14.9251 27.3593 15.2667 27.0799L18.2108 24.68C18.5193 24.4284 18.9589 24.416 19.2813 24.6501L24.5912 28.5052C24.9567 28.7708 25.4747 28.5706 25.5664 28.1288L29.4562 9.41852C29.5562 8.93595 29.0823 8.53342 28.6228 8.71118L6.94758 17.0729C6.41261 17.279 6.4172 18.0364 6.95369 18.2373ZM13.9499 19.1593L24.2718 12.8021C24.4572 12.6882 24.6481 12.939 24.4887 13.0868L15.9703 21.0051C15.6708 21.2837 15.4777 21.6568 15.4229 22.0618L15.1329 24.2122C15.0943 24.4992 14.6912 24.5276 14.6118 24.2498L13.4958 20.3284C13.3681 19.8812 13.5543 19.4034 13.9499 19.1593Z" fill="#ECB84C"/>
</g>
<defs>
<clipPath id="clip0">
<rect y="0.637451" width="36.0183" height="36.0183" rx="5" fill="white"/>
</clipPath>
</defs>
</svg>
